<svg width="1440" height="810" viewBox="0 0 1440 810" fill="none" xmlns="http://www.w3.org/2000/svg">
<g clip-path="url(#clip0_3076_3915)">
<mask id="mask0_3076_3915" style="mask-type:luminance" maskUnits="userSpaceOnUse" x="0" y="0" width="1440" height="810">
<path d="M1440 0H0V810H1440V0Z" fill="white"/>
</mask>
<g mask="url(#mask0_3076_3915)">
<g opacity="0.5">
<path d="M-194.045 87.9764C-178.381 87.9764 -163.118 90.9614 -148.685 96.8527C-133.733 102.95 -120.342 111.909 -108.875 123.478L108.614 342.909C120.014 354.41 128.842 367.798 134.845 382.693C140.647 397.085 143.59 412.288 143.59 427.876C143.59 443.465 140.65 458.668 134.845 473.06C128.842 487.955 120.014 501.343 108.614 512.844L-108.875 732.275C-120.342 743.844 -133.733 752.803 -148.685 758.9C-163.118 764.788 -178.381 767.776 -194.045 767.776C-209.708 767.776 -224.971 764.791 -239.405 758.9C-254.356 752.803 -267.747 743.844 -279.215 732.275L-496.703 512.844C-508.103 501.343 -516.931 487.955 -522.935 473.06C-528.736 458.668 -531.68 443.465 -531.68 427.876C-531.68 412.288 -528.74 397.085 -522.935 382.693C-516.931 367.798 -508.103 354.41 -496.703 342.909L-279.215 123.474C-267.747 111.905 -254.356 102.946 -239.405 96.8489C-224.971 90.9614 -209.708 87.9727 -194.045 87.9727M-194.045 86.4727C-225.286 86.4727 -256.527 98.4539 -280.28 122.416L-497.768 341.848C-544.981 389.48 -544.981 466.261 -497.768 513.898L-280.28 733.329C-256.527 757.291 -225.286 769.273 -194.045 769.273C-162.803 769.273 -131.562 757.291 -107.81 733.329L109.679 513.898C156.892 466.265 156.892 389.484 109.679 341.848L-107.81 122.42C-131.562 98.4577 -162.803 86.4764 -194.045 86.4764V86.4727Z" fill="#000835"/>
</g>
<g opacity="0.5">
<path d="M-189.938 -270.881C-167.412 -270.881 -145.463 -266.587 -124.703 -258.116C-103.204 -249.345 -83.9406 -236.463 -67.4518 -219.825L453.104 305.382C469.541 321.964 482.264 341.262 490.919 362.734C499.282 383.483 503.523 405.402 503.523 427.872C503.523 450.342 499.282 472.26 490.919 493.009C482.264 514.485 469.541 533.779 453.104 550.362L-67.4518 1075.58C-83.9406 1092.21 -103.204 1105.1 -124.703 1113.87C-145.463 1122.33 -167.412 1126.63 -189.938 1126.63C-212.464 1126.63 -234.413 1122.34 -255.173 1113.87C-276.672 1105.1 -295.936 1092.21 -312.424 1075.58L-832.981 550.365C-849.417 533.783 -862.141 514.485 -870.796 493.013C-879.158 472.264 -883.399 450.345 -883.399 427.875C-883.399 405.405 -879.158 383.487 -870.796 362.738C-862.141 341.262 -849.417 321.968 -832.981 305.385L-312.424 -219.825C-295.936 -236.463 -276.672 -249.345 -255.173 -258.116C-234.413 -266.583 -212.464 -270.881 -189.938 -270.881ZM-189.938 -272.381C-234.698 -272.381 -279.462 -255.213 -313.489 -220.882L-834.046 304.328C-901.849 372.739 -901.849 483.012 -834.046 551.423L-313.489 1076.63C-279.462 1110.96 -234.698 1128.13 -189.938 1128.13C-145.178 1128.13 -100.414 1110.96 -66.3868 1076.63L454.169 551.423C521.973 483.012 521.973 372.739 454.169 304.328L-66.3868 -220.882C-100.414 -255.213 -145.178 -272.381 -189.938 -272.381Z" fill="#000835"/>
</g>
<g opacity="0.5">
<path d="M-185.831 -629.736C-171.352 -629.736 -156.817 -628.334 -142.623 -625.574C-128.294 -622.784 -114.198 -618.584 -100.721 -613.086C-72.6708 -601.641 -47.5382 -584.834 -26.0245 -563.129L797.595 267.86C819.068 289.524 835.688 314.731 846.994 342.785C852.432 356.274 856.587 370.374 859.343 384.695C862.073 398.881 863.46 413.409 863.46 427.876C863.46 442.344 862.077 456.871 859.343 471.057C856.587 485.379 852.432 499.479 846.994 512.967C835.688 541.021 819.068 566.229 797.595 587.892L-26.0283 1418.88C-47.542 1440.58 -72.6744 1457.39 -100.724 1468.83C-114.202 1474.33 -128.298 1478.54 -142.627 1481.32C-156.817 1484.09 -171.356 1485.48 -185.834 1485.48C-200.313 1485.48 -214.848 1484.09 -229.042 1481.32C-243.371 1478.53 -257.467 1474.33 -270.944 1468.83C-298.994 1457.39 -324.127 1440.58 -345.641 1418.88L-1169.26 587.892C-1190.73 566.229 -1207.35 541.021 -1218.66 512.967C-1224.09 499.479 -1228.25 485.379 -1231 471.057C-1233.73 456.871 -1235.12 442.344 -1235.12 427.876C-1235.12 413.409 -1233.74 398.881 -1231 384.695C-1228.25 370.374 -1224.09 356.274 -1218.66 342.785C-1207.35 314.731 -1190.73 289.524 -1169.26 267.86L-345.633 -563.125C-324.12 -584.83 -298.991 -601.638 -270.937 -613.083C-257.459 -618.58 -243.363 -622.784 -229.034 -625.57C-214.844 -628.334 -200.306 -629.733 -185.827 -629.733M-185.827 -631.233C-244.109 -631.233 -302.388 -608.883 -346.694 -564.179L-1170.32 266.802C-1258.72 355.992 -1258.72 499.76 -1170.32 588.946L-346.698 1419.94C-302.392 1464.64 -244.109 1486.99 -185.831 1486.99C-127.552 1486.99 -69.2695 1464.64 -24.9633 1419.94L798.66 588.95C887.059 499.76 887.059 355.992 798.66 266.806L-24.9633 -564.183C-69.2695 -608.886 -127.552 -631.236 -185.831 -631.236L-185.827 -631.233Z" fill="#000835"/>
</g>
<g opacity="0.5">
<path d="M-181.725 -988.59C-163.868 -988.59 -145.935 -986.861 -128.43 -983.456C-110.757 -980.014 -93.3679 -974.831 -76.7441 -968.051C-42.1429 -953.936 -11.1416 -933.202 15.3934 -906.427L1142.08 230.336C1168.59 257.078 1189.11 288.199 1203.07 322.83C1209.78 339.484 1214.91 356.888 1218.31 374.569C1221.68 392.081 1223.39 410.017 1223.39 427.879C1223.39 445.74 1221.68 463.676 1218.31 481.189C1214.91 498.866 1209.78 516.274 1203.07 532.927C1189.11 567.559 1168.59 598.68 1142.08 625.421L15.3934 1762.18C-11.1453 1788.95 -42.1429 1809.69 -76.7441 1823.8C-93.3679 1830.58 -110.757 1835.77 -128.43 1839.21C-145.935 1842.61 -163.864 1844.34 -181.725 1844.34C-199.587 1844.34 -217.515 1842.61 -235.02 1839.21C-252.694 1835.77 -270.083 1830.58 -286.707 1823.8C-321.308 1809.69 -352.305 1788.95 -378.844 1762.18L-1505.54 625.414C-1532.04 598.672 -1552.56 567.551 -1566.52 532.92C-1573.23 516.266 -1578.36 498.862 -1581.76 481.181C-1585.13 463.669 -1586.84 445.733 -1586.84 427.871C-1586.84 410.01 -1585.13 392.074 -1581.76 374.561C-1578.36 356.884 -1573.23 339.476 -1566.52 322.823C-1552.56 288.191 -1532.04 257.07 -1505.54 230.329L-378.844 -906.427C-352.309 -933.202 -321.308 -953.936 -286.707 -968.051C-270.083 -974.831 -252.694 -980.018 -235.02 -983.456C-217.515 -986.865 -199.587 -988.59 -181.725 -988.59ZM-181.725 -990.09C-253.527 -990.09 -325.328 -962.554 -379.909 -907.481L-1506.6 229.279C-1615.59 339.244 -1615.59 516.506 -1506.6 626.471L-379.909 1763.23C-325.324 1818.31 -253.527 1845.84 -181.725 1845.84C-109.924 1845.84 -38.1229 1818.31 16.4584 1763.23L1143.15 626.471C1252.14 516.506 1252.14 339.244 1143.15 229.279L16.4584 -907.485C-38.1266 -962.557 -109.928 -990.094 -181.725 -990.094V-990.09Z" fill="#000835"/>
</g>
<g opacity="0.5">
<path d="M-177.619 -1347.45C-156.379 -1347.45 -135.053 -1345.39 -114.236 -1341.34C-93.2177 -1337.25 -72.5364 -1331.08 -52.7627 -1323.01C-32.6213 -1314.8 -13.2264 -1304.52 4.88977 -1292.48C23.4823 -1280.11 40.9536 -1265.73 56.8162 -1249.72L1486.57 192.811C1502.43 208.804 1516.67 226.377 1528.9 245.044C1540.83 263.24 1551.01 282.698 1559.14 302.877C1567.13 322.692 1573.23 343.407 1577.28 364.444C1581.3 385.283 1583.33 406.625 1583.33 427.88C1583.33 449.135 1581.3 470.476 1577.28 491.315C1573.23 512.352 1567.13 533.063 1559.14 552.882C1551.01 573.061 1540.84 592.516 1528.9 610.715C1516.67 629.382 1502.43 646.955 1486.57 662.948L56.8198 2105.48C40.9573 2121.48 23.4861 2135.87 4.89355 2148.23C-13.2227 2160.28 -32.6177 2170.55 -52.759 2178.77C-72.5289 2186.84 -93.2103 2193 -114.233 2197.09C-135.053 2201.15 -156.375 2203.2 -177.615 2203.2C-198.855 2203.2 -220.181 2201.15 -240.998 2197.09C-262.016 2193 -282.698 2186.84 -302.471 2178.77C-322.613 2170.55 -342.008 2160.28 -360.124 2148.23C-378.717 2135.87 -396.188 2121.48 -412.05 2105.48L-1841.81 662.941C-1857.66 646.947 -1871.9 629.375 -1884.14 610.707C-1896.07 592.512 -1906.24 573.053 -1914.38 552.875C-1922.36 533.059 -1928.47 512.345 -1932.52 491.307C-1936.53 470.468 -1938.57 449.127 -1938.57 427.872C-1938.57 406.617 -1936.53 385.276 -1932.52 364.437C-1928.47 343.399 -1922.36 322.688 -1914.38 302.87C-1906.24 282.691 -1896.07 263.236 -1884.14 245.037C-1871.9 226.37 -1857.66 208.797 -1841.81 192.803L-412.054 -1249.73C-396.192 -1265.73 -378.72 -1280.12 -360.128 -1292.48C-342.011 -1304.53 -322.617 -1314.8 -302.475 -1323.02C-282.705 -1331.08 -262.024 -1337.25 -241.001 -1341.34C-220.182 -1345.39 -198.859 -1347.45 -177.619 -1347.45M-177.619 -1348.95C-262.939 -1348.95 -348.259 -1316.23 -413.119 -1250.79L-1842.88 191.757C-1972.46 322.501 -1972.46 533.255 -1842.88 663.998L-413.119 2106.54C-348.259 2171.98 -262.939 2204.7 -177.619 2204.7C-92.299 2204.7 -6.979 2171.98 57.8811 2106.54L1487.64 663.995C1617.22 533.251 1617.22 322.497 1487.64 191.753L57.8848 -1250.78C-6.97534 -1316.22 -92.2953 -1348.95 -177.615 -1348.95L-177.619 -1348.95Z" fill="#000835"/>
</g>
</g>
</g>
<defs>
<clipPath id="clip0_3076_3915">
<rect width="1440" height="810" fill="white"/>
</clipPath>
</defs>
</svg>
